<?xml version="1.0" encoding="UTF-8"?>
<svg width="50" height="50" viewBox="0 0 50 50" fill="none" xmlns="http://www.w3.org/2000/svg">
<path fill-rule="evenodd" clip-rule="evenodd" d="M23 14.5342V49H50V1L23 14.5342Z" fill="url(#paint0_linear)"/>
<path d="M25.7671 0.571823C26.1337 0.205612 26.6304 0 27.1484 0H48.0469C49.1257 0 50 0.874329 50 1.95312V48.0469C50 49.1257 49.1257 50 48.0469 50H16.7969C15.7181 50 14.8438 49.1257 14.8438 48.0469V12.3047C14.8438 11.7867 15.0494 11.29 15.4156 10.9234L25.7671 0.571823ZM18.75 46.0938H46.0938V3.90625H27.9575L18.75 13.1138V46.0938ZM25.0977 39.1113C25.0977 40.1901 25.972 41.0645 27.0508 41.0645H37.793C38.8718 41.0645 39.7461 40.1901 39.7461 39.1113C39.7461 38.0325 38.8718 37.1582 37.793 37.1582H27.0508C25.972 37.1582 25.0977 38.0325 25.0977 39.1113ZM40.2344 28.2227H24.6094C23.5306 28.2227 22.6562 29.097 22.6562 30.1758C22.6562 31.2546 23.5306 32.1289 24.6094 32.1289H40.2344C41.3132 32.1289 42.1875 31.2546 42.1875 30.1758C42.1875 29.097 41.3132 28.2227 40.2344 28.2227ZM37.793 19.2871H27.0508C25.972 19.2871 25.0977 20.1614 25.0977 21.2402C25.0977 22.319 25.972 23.1934 27.0508 23.1934H37.793C38.8718 23.1934 39.7461 22.319 39.7461 21.2402C39.7461 20.1614 38.8718 19.2871 37.793 19.2871ZM1.95312 0H9.375C10.4538 0 11.3281 0.874329 11.3281 1.95312V40.625C11.3281 40.9283 11.2576 41.2273 11.1221 41.4986L7.41119 48.9204C6.69289 50.3567 4.636 50.3582 3.91731 48.9204L0.206375 41.4986C0.0705719 41.2273 0 40.9283 0 40.625V1.95312C0 0.874329 0.874329 0 1.95312 0ZM3.90625 40.1638L5.66406 43.6794L7.42188 40.1638V3.90625H3.90625V40.1638Z" fill="#14550F"/>
<defs>
<linearGradient id="paint0_linear" x1="23.135" y1="-1.22405" x2="23.135" y2="49.72" gradientUnits="userSpaceOnUse">
<stop stop-color="#78E26F"/>
<stop offset="1" stop-color="#0BBC52"/>
</linearGradient>
</defs>
</svg>
