<?xml version="1.0" encoding="UTF-8"?>
<svg width="50" height="50" viewBox="0 0 50 50" fill="none" xmlns="http://www.w3.org/2000/svg">
<path d="M27.5 50C39.3741 50 49 40.3741 49 28.5C49 16.6259 39.3741 7 27.5 7C15.6259 7 6 16.6259 6 28.5C6 40.3741 15.6259 50 27.5 50Z" fill="url(#paint0_linear)"/>
<path d="M25 0C38.8168 0 50 11.1813 50 25C50 38.8168 38.8187 50 25 50C11.1832 50 0 38.8187 0 25C0 11.1832 11.1813 0 25 0ZM34.6653 43.7592C36.0886 43.0241 37.4321 42.1223 38.6719 41.0637V30.3059C38.6719 27.1294 36.0878 24.5449 32.9113 24.5441H32.9102H32.909C31.6643 24.5445 30.484 24.9393 29.5139 25.6481C31.0902 26.9508 32.0965 28.92 32.0965 31.1195C32.0965 32.9464 31.4022 34.6138 30.2643 35.8727C32.856 37.5618 34.5917 40.4591 34.6653 43.7592ZM36.1004 17.448C36.1004 15.6887 34.6691 14.2578 32.9102 14.2578C31.1512 14.2578 29.7199 15.6887 29.7199 17.448C29.7199 19.2066 31.1504 20.6375 32.909 20.6383C32.9094 20.6383 32.9098 20.6383 32.9102 20.6383C32.9105 20.6383 32.9109 20.6383 32.9113 20.6383C34.6699 20.6371 36.1004 19.2066 36.1004 17.448ZM19.2383 45.3003C21.0896 45.8229 23.024 46.0938 25 46.0938C26.976 46.0938 28.9104 45.8229 30.7617 45.3003V43.9777C30.7617 40.8012 28.1776 38.2168 25.0011 38.216H25H24.9989C21.8224 38.2168 19.2383 40.8012 19.2383 43.9777V45.3003ZM28.1902 31.1199C28.1902 29.3606 26.759 27.9297 25 27.9297C23.241 27.9297 21.8098 29.3606 21.8098 31.1199C21.8098 32.8785 23.2403 34.3094 24.9989 34.3102C24.9992 34.3102 24.9996 34.3102 25 34.3102C25.0004 34.3102 25.0008 34.3102 25.0011 34.3102C26.7597 34.309 28.1902 32.8785 28.1902 31.1199ZM11.3281 41.0637C12.5679 42.1223 13.9114 43.0241 15.3347 43.7592C15.4083 40.4591 17.144 37.5618 19.7357 35.873C18.5978 34.6138 17.9035 32.9464 17.9035 31.1199C17.9035 28.92 18.9098 26.9508 20.4861 25.6485C19.516 24.9397 18.3357 24.5445 17.091 24.5445H17.0898H17.0887C13.9122 24.5449 11.3281 27.1294 11.3281 30.3062V41.0637ZM20.2801 17.448C20.2801 15.6887 18.8488 14.2578 17.0898 14.2578C15.3309 14.2578 13.8996 15.6887 13.8996 17.448C13.8996 19.2066 15.3301 20.6375 17.0887 20.6383C17.0891 20.6383 17.0895 20.6383 17.0898 20.6383C17.0902 20.6383 17.0906 20.6383 17.091 20.6383C18.8496 20.6375 20.2801 19.2066 20.2801 17.448ZM7.42188 36.6714V30.3059C7.42188 26.9154 9.17664 23.9273 11.8256 22.2012C10.6876 20.9419 9.99336 19.2745 9.99336 17.448C9.99336 13.5349 13.1771 10.3516 17.0898 10.3516C21.0026 10.3516 24.1863 13.5349 24.1863 17.448C24.1863 19.2719 23.494 20.9366 22.3595 22.1951C23.1384 22.7016 23.8461 23.3231 24.4583 24.0463C24.6372 24.0326 24.8177 24.0234 25 24.0234C25.1823 24.0234 25.3628 24.0326 25.5417 24.0463C26.1539 23.3231 26.8616 22.7016 27.6405 22.1951C26.506 20.9366 25.8137 19.2719 25.8137 17.448C25.8137 13.5349 28.9974 10.3516 32.9102 10.3516C36.8229 10.3516 40.0066 13.5349 40.0066 17.448C40.0066 19.2745 39.3124 20.9419 38.1744 22.2012C40.8234 23.9273 42.5781 26.9154 42.5781 30.3059V36.6714C44.8654 33.242 46.0938 29.2156 46.0938 25C46.0938 13.3419 36.6596 3.90625 25 3.90625C13.3419 3.90625 3.90625 13.3404 3.90625 25C3.90625 29.2156 5.13458 33.242 7.42188 36.6714Z" fill="#14550F"/>
<defs>
<linearGradient id="paint0_linear" x1="6.215" y1="5.00762" x2="6.215" y2="50.645" gradientUnits="userSpaceOnUse">
<stop stop-color="#78E26F"/>
<stop offset="1" stop-color="#0BBC52"/>
</linearGradient>
</defs>
</svg>
