<svg width="50" height="53" viewBox="0 0 50 53" fill="none" xmlns="http://www.w3.org/2000/svg">
<path fill-rule="evenodd" clip-rule="evenodd" d="M8 19V53H50V19H8Z" fill="url(#paint0_linear)"/>
<path d="M1.95312 0H48.0469C49.1257 0 50 0.874329 50 1.95312V48.0469C50 49.1257 49.1257 50 48.0469 50H1.95312C0.874329 50 0 49.1257 0 48.0469C0 45.9518 0 2.72675 0 1.95312C0 0.874329 0.874329 0 1.95312 0ZM3.90625 46.0938H46.0938V12.3047H3.90625V46.0938ZM3.90625 8.39844H46.0938V3.90625H3.90625V8.39844ZM40.918 38.9648H24.5918C23.513 38.9648 22.6387 38.0905 22.6387 37.0117V21.3867C22.6387 20.3079 23.513 19.4336 24.5918 19.4336H40.918C41.9968 19.4336 42.8711 20.3079 42.8711 21.3867V37.0117C42.8711 38.0905 41.9968 38.9648 40.918 38.9648ZM38.9648 23.3398H26.545V35.0586H38.9648V23.3398ZM18.1778 29.1992C18.1778 28.1204 17.3035 27.2461 16.2247 27.2461H9.08203C8.00323 27.2461 7.12891 28.1204 7.12891 29.1992C7.12891 30.278 8.00323 31.1523 9.08203 31.1523H16.2247C17.3035 31.1523 18.1778 30.278 18.1778 29.1992ZM18.1778 37.0117C18.1778 35.9329 17.3035 35.0586 16.2247 35.0586H9.08203C8.00323 35.0586 7.12891 35.9329 7.12891 37.0117C7.12891 38.0905 8.00323 38.9648 9.08203 38.9648H16.2247C17.3035 38.9648 18.1778 38.0905 18.1778 37.0117Z" fill="#5014AA"/>
<defs>
<linearGradient id="paint0_linear" x1="8.21" y1="17.4246" x2="8.21" y2="53.51" gradientUnits="userSpaceOnUse">
<stop stop-color="#9784EB"/>
<stop offset="0.9999" stop-color="#6200EA"/>
</linearGradient>
</defs>
</svg>
