<?xml version="1.0" encoding="utf-8"?>
<!-- Generator: Adobe Illustrator 19.0.0, SVG Export Plug-In . SVG Version: 6.00 Build 0)  -->
<svg version="1.1" id="Capa_1" xmlns="http://www.w3.org/2000/svg" xmlns:xlink="http://www.w3.org/1999/xlink" x="0px" y="0px"
	 viewBox="0 0 1920 1080" enable-background="new 0 0 1920 1080" xml:space="preserve">
<g id="XMLID_2_">
	<path id="XMLID_5_" fill="#5014AA" d="M296.62,751.35c17.99,16.9,42.34,25.34,66.92,23.2l1797.22-156.3
		c44.03-3.83,78.15-40.15,79.22-84.33l-0.62-1017.76c0.6-24.68-9.34-48.44-27.34-65.34c-16.15-15.17-37.42-23.52-59.39-23.52
		c-2.5,0-5.01,0.11-7.52,0.33L347.88-416.08c-44.03,3.83-78.15,40.15-79.22,84.33l0.62,1017.76
		C268.68,710.69,278.63,734.45,296.62,751.35"/>
	<path id="XMLID_4_" fill="#6E50F0" d="M-459.36,636.5c15.96,14.99,37.56,22.47,59.35,20.57l1594-138.63
		c39.05-3.4,69.31-35.61,70.26-74.8l-0.55-789.69c0.53-21.88-8.29-42.96-24.24-57.95c-14.33-13.46-33.19-20.86-52.68-20.86
		c-2.22,0-4.45,0.1-6.67,0.29l-1594,138.63c-39.05,3.4-69.31,35.61-70.26,74.8l0.55,789.69
		C-484.13,600.44-475.31,621.52-459.36,636.5"/>
	<path id="XMLID_3_" fill="#AEEA00" d="M114.48,677.98c3.66,3.43,8.6,5.15,13.6,4.71l365.14-31.76c8.95-0.78,15.88-8.16,16.09-17.13
		l-0.12-0.89c0.12-5.01-1.9-9.84-5.55-13.27c-3.28-3.08-7.6-4.78-12.07-4.78c-0.51,0-1.02,0.02-1.53,0.07L124.9,646.68
		c-8.95,0.78-15.88,8.16-16.09,17.13l0.12,0.89C108.81,669.72,110.82,674.55,114.48,677.98"/>
	<path id="XMLID_37_" fill="#AEEA00" d="M1669.47,804.04c3.66,3.43,8.6,5.15,13.6,4.71L2048.2,777c8.95-0.78,15.88-8.16,16.09-17.13
		l-0.12-0.89c0.12-5.01-1.9-9.84-5.55-13.27c-3.28-3.08-7.6-4.78-12.07-4.78c-0.51,0-1.02,0.02-1.53,0.07l-365.14,31.76
		c-8.95,0.78-15.88,8.16-16.09,17.13l0.12,0.89C1663.79,795.78,1665.81,800.61,1669.47,804.04"/>
</g>
<g id="XMLID_9_">
	<path id="XMLID_12_" fill="#5014AA" d="M762.67,709.26c17.99,16.9,42.34,25.34,66.92,23.2l1797.22-156.3
		c44.03-3.83,78.15-40.15,79.22-84.33l-0.62-1017.76c0.6-24.68-9.34-48.44-27.34-65.34c-16.15-15.17-37.42-23.52-59.39-23.52
		c-2.5,0-5.01,0.11-7.52,0.33L813.93-458.16c-44.03,3.83-78.15,40.15-79.22,84.33l0.62,1017.76
		C734.74,668.6,744.68,692.36,762.67,709.26"/>
	<path id="XMLID_11_" fill="#6E50F0" d="M-114.69,608c15.96,14.99,37.56,22.47,59.35,20.57l1594-138.63
		c39.05-3.4,69.31-35.61,70.26-74.8l-0.55-789.69c0.53-21.88-8.29-42.96-24.24-57.95c-14.33-13.46-33.19-20.86-52.68-20.86
		c-2.22,0-4.45,0.1-6.67,0.29l-1594,138.63c-39.05,3.4-69.31,35.61-70.26,74.8l0.55,789.69C-139.46,571.94-130.65,593.01-114.69,608
		"/>
	<path id="XMLID_10_" d="M1441.96,754.43c3.66,3.43,8.6,5.15,13.6,4.71l365.14-31.76c8.95-0.78,15.88-8.16,16.09-17.13l-0.13-0.89
		c0.12-5.01-1.9-9.84-5.55-13.27c-3.28-3.08-7.6-4.78-12.07-4.78c-0.51,0-1.02,0.02-1.53,0.07l-365.14,31.76
		c-8.95,0.78-15.88,8.16-16.09,17.13l0.13,0.89C1436.29,746.17,1438.31,751,1441.96,754.43"/>
</g>
</svg>
