<svg width="50" height="51" viewBox="0 0 50 51" fill="none" xmlns="http://www.w3.org/2000/svg">
<path fill-rule="evenodd" clip-rule="evenodd" d="M11 11V51H50V9H11V11Z" fill="url(#paint0_linear)"/>
<path d="M1.95312 0H48.0469C49.1257 0 50 0.874329 50 1.95312V48.0469C50 49.1257 49.1257 50 48.0469 50H1.95312C0.874329 50 0 49.1257 0 48.0469V1.95312C0 0.874329 0.874329 0 1.95312 0ZM3.90625 46.0938H46.0938V3.90625H3.90625V46.0938ZM34.2484 25.9766C34.2484 27.0554 33.374 27.9297 32.2952 27.9297H17.7048C16.626 27.9297 15.7516 27.0554 15.7516 25.9766C15.7516 22.7867 17.3748 19.9692 19.8383 18.306C18.7584 17.0876 18.1007 15.4873 18.1007 13.7352C18.1007 9.9308 21.196 6.83594 25 6.83594C28.804 6.83594 31.8993 9.9308 31.8993 13.7352C31.8993 15.4873 31.2416 17.0876 30.1617 18.306C32.6256 19.9692 34.2484 22.7867 34.2484 25.9766ZM25 10.7422C23.3498 10.7422 22.007 12.0846 22.007 13.7352C22.007 15.3854 23.3498 16.7282 25 16.7282C26.6502 16.7282 27.993 15.3854 27.993 13.7352C27.993 12.085 26.6502 10.7422 25 10.7422ZM25 20.6345C22.7432 20.6345 20.8088 22.0409 20.0272 24.0234H29.9728C29.1912 22.0409 27.2568 20.6345 25 20.6345ZM42.5781 36.9141C42.5781 35.8353 41.7038 34.9609 40.625 34.9609H35.1562V33.2031C35.1562 32.1243 34.2819 31.25 33.2031 31.25C32.1243 31.25 31.25 32.1243 31.25 33.2031V34.9609H9.375C8.2962 34.9609 7.42188 35.8353 7.42188 36.9141C7.42188 37.9929 8.2962 38.8672 9.375 38.8672H31.25V40.625C31.25 41.7038 32.1243 42.5781 33.2031 42.5781C34.2819 42.5781 35.1562 41.7038 35.1562 40.625V38.8672H40.625C41.7038 38.8672 42.5781 37.9929 42.5781 36.9141Z" fill="#5014AA"/>
<defs>
<linearGradient id="paint0_linear" x1="11.195" y1="7.05396" x2="11.195" y2="51.63" gradientUnits="userSpaceOnUse">
<stop stop-color="#9784EB"/>
<stop offset="1" stop-color="#6200EA"/>
</linearGradient>
</defs>
</svg>
