<svg width="50" height="50" viewBox="0 0 50 50" fill="none" xmlns="http://www.w3.org/2000/svg">
<path d="M28.5 47C40.3741 47 50 37.3741 50 25.5C50 13.6259 40.3741 4 28.5 4C16.6259 4 7 13.6259 7 25.5C7 37.3741 16.6259 47 28.5 47Z" fill="url(#paint0_linear)"/>
<path d="M25 0C38.8168 0 50 11.1813 50 25C50 38.8168 38.8187 50 25 50C11.1832 50 0 38.8187 0 25C0 11.1832 11.1813 0 25 0ZM12.3047 41.8488V28.9062C12.3047 27.8275 13.179 26.9531 14.2578 26.9531C15.3366 26.9531 16.2109 27.8275 16.2109 28.9062V44.186C18.354 45.1691 20.6581 45.7859 23.0469 46.0037V31.8359C23.0469 30.7571 23.9212 29.8828 25 29.8828C26.0788 29.8828 26.9531 30.7571 26.9531 31.8359V46.0037C29.3419 45.7859 31.646 45.1691 33.7891 44.186V31.8359C33.7891 30.7571 34.6634 29.8828 35.7422 29.8828C36.821 29.8828 37.6953 30.7571 37.6953 31.8359V41.8488C40.934 39.3982 43.4906 36.0218 44.8971 32.0343L39.8159 26.9531H25C24.482 26.9531 23.9853 26.7475 23.6187 26.3809L16.2109 18.9732V22.0703C16.2109 23.1491 15.3366 24.0234 14.2578 24.0234C13.179 24.0234 12.3047 23.1491 12.3047 22.0703V14.2578C12.3047 13.1847 13.1836 12.3047 14.2578 12.3047H22.0703C23.1491 12.3047 24.0234 13.179 24.0234 14.2578C24.0234 15.3366 23.1491 16.2109 22.0703 16.2109H18.9732L25.8091 23.0469H40.625C41.143 23.0469 41.6397 23.2525 42.0063 23.6191L45.9412 27.5539C46.0419 26.7128 46.0938 25.8602 46.0938 25C46.0938 13.3419 36.6596 3.90625 25 3.90625C13.3419 3.90625 3.90625 13.3404 3.90625 25C3.90625 31.7955 7.09534 37.9066 12.3047 41.8488Z" fill="#5014AA"/>
<defs>
<linearGradient id="paint0_linear" x1="7.215" y1="2.00762" x2="7.215" y2="47.645" gradientUnits="userSpaceOnUse">
<stop stop-color="#9784EB"/>
<stop offset="1" stop-color="#6200EA"/>
</linearGradient>
</defs>
</svg>
