<svg width="394" height="169" viewBox="0 0 394 169" fill="none" xmlns="http://www.w3.org/2000/svg">
<path d="M21.94 165.15C16.2785 165.147 10.8495 162.897 6.8462 158.894C2.84288 154.89 0.59266 149.462 0.59001 143.8V55.16C0.56215 49.8072 2.55639 44.6413 6.17378 40.6957C9.79117 36.7502 14.7649 34.3159 20.1 33.88L183.61 19.69C183.928 19.6525 184.25 19.6792 184.558 19.7687C184.865 19.8581 185.152 20.0085 185.4 20.2107C185.648 20.413 185.853 20.6631 186.003 20.9461C186.152 21.2292 186.244 21.5394 186.271 21.8584C186.299 22.1774 186.262 22.4987 186.163 22.8032C186.064 23.1077 185.904 23.3892 185.694 23.6309C185.484 23.8726 185.228 24.0697 184.94 24.2104C184.653 24.3511 184.34 24.4326 184.02 24.45L20.51 38.65C16.3703 38.9877 12.5108 40.876 9.70363 43.9372C6.89646 46.9983 5.3487 51.0066 5.37001 55.16V143.8C5.3753 148.193 7.12278 152.405 10.2291 155.511C13.3354 158.617 17.547 160.365 21.94 160.37C22.4209 160.372 22.9016 160.348 23.38 160.3L370.66 130.15C374.799 129.812 378.657 127.924 381.463 124.862C384.268 121.801 385.814 117.792 385.79 113.64V25C385.79 22.7037 385.313 20.4324 384.389 18.3304C383.464 16.2284 382.113 14.3417 380.42 12.79C378.727 11.2383 376.73 10.0557 374.556 9.31712C372.382 8.57858 370.078 8.30032 367.79 8.5L216.79 21.61C216.157 21.6644 215.529 21.4652 215.044 21.0564C214.558 20.6476 214.254 20.0625 214.2 19.43C214.146 18.7974 214.345 18.1692 214.754 17.6835C215.162 17.1978 215.747 16.8944 216.38 16.84L367.38 3.72999C370.328 3.47662 373.296 3.83817 376.097 4.79174C378.898 5.74532 381.471 7.27014 383.651 9.26963C385.832 11.2691 387.574 13.6997 388.767 16.4075C389.96 19.1153 390.577 22.0412 390.58 25V113.64C390.608 118.993 388.614 124.159 384.996 128.104C381.379 132.05 376.405 134.484 371.07 134.92L23.79 165.07C23.18 165.12 22.56 165.15 21.94 165.15Z" fill="#AEEA00"/>
<path d="M389.61 18.44C390.259 20.481 390.596 22.6083 390.61 24.75V113.39C390.638 118.742 388.643 123.906 385.026 127.85C381.408 131.794 376.434 134.226 371.1 134.66L23.79 164.82C23.18 164.87 22.56 164.9 21.94 164.9C19.7983 164.886 17.671 164.549 15.63 163.9C19.0428 166.747 23.3456 168.307 27.79 168.31C28.34 168.31 28.88 168.31 29.43 168.24L376.71 138.09C381.421 137.664 385.804 135.496 389.002 132.01C392.2 128.524 393.982 123.97 394 119.24V30.6C394.008 26.1572 392.454 21.853 389.61 18.44V18.44Z" fill="#AEEA00"/>
<path d="M35.92 69.81C35.92 66.74 37.8 65.11 40.08 64.91C42.36 64.71 43.84 66.19 43.84 69.12V80.19L55.84 79.19V69.46C55.84 57.72 49.53 51.46 40.12 52.29C28.03 53.34 22.25 62.77 22.25 73.84C22.25 84.1 29.37 95.75 34.61 103.56C39.81 112 43 118 43 126C43 129.33 41.52 131.46 38.56 131.71C35.6 131.96 34 130 34 126.77V116.37L21.9 117.42V126.75C21.9 138.62 28.49 144.75 39.24 143.75C47.97 142.99 56.43 136.52 56.43 122.66C56.43 112.26 50.52 102.24 44.61 92.75C39 83.41 35.92 80.07 35.92 69.81Z" fill="white"/>
<path d="M95.32 65.72C95.32 54.92 88.06 48.08 78.12 48.95C67.91 49.83 61.46 57.72 61.46 68.26V80.79L74.63 79.65V66.71C74.63 64.31 75.3 62.52 77.99 62.29C80.68 62.06 81.35 63.73 81.35 66.13V82C68.35 90.73 60.35 99.95 60.35 114.48V123.55C60.35 136.21 66.8 141.38 75.4 140.64C77.2345 140.488 79.0068 139.903 80.5713 138.933C82.1358 137.963 83.4479 136.635 84.4 135.06C84.5439 136.227 84.8607 137.366 85.34 138.44L97.03 137.44C95.7043 133.542 95.1109 129.433 95.28 125.32L95.32 65.72ZM81.32 118.39C81.05 123.08 79.97 126.64 77.69 126.84C75.41 127.04 74.47 125.65 74.47 122.59V110.59C74.47 104.99 76.75 100.52 81.32 96.66V118.39Z" fill="white"/>
<path d="M115.63 54C115.642 53.1077 115.463 52.2232 115.106 51.4054C114.749 50.5876 114.221 49.8553 113.559 49.2573C112.897 48.6592 112.114 48.2093 111.265 47.9373C110.415 47.6653 109.516 47.5776 108.63 47.68C106.742 47.8609 104.986 48.7287 103.696 50.1186C102.406 51.5085 101.67 53.3239 101.63 55.22V137L130 134.57V121.77L115.63 123V54Z" fill="white"/>
<path d="M149.78 42.72C139.84 43.59 132.45 51.72 132.45 62.49V117.42C132.45 128.35 139.84 135.05 149.78 134.18C159.99 133.3 166.43 125.54 166.43 114.87V98.87L153.27 100V116.13C153.27 118.53 152.73 120.57 149.91 120.82C147.09 121.07 146.55 119.11 146.55 116.71V92.6L166.43 90.87V59.14C166.43 48.61 160 41.84 149.78 42.72ZM153.27 80.15L146.55 80.73V60.73C146.55 58.33 147.22 56.27 149.91 56.03C152.6 55.79 153.27 57.74 153.27 60.14V80.15Z" fill="white"/>
<path d="M210.63 37.29C209.4 37.4126 208.185 37.6503 207 38V6.58999C207.011 5.70706 206.834 4.83187 206.482 4.02241C206.129 3.21295 205.608 2.48773 204.954 1.89485C204.299 1.30196 203.526 0.854939 202.686 0.58343C201.846 0.311921 200.958 0.222136 200.08 0.320002C198.213 0.505164 196.479 1.36713 195.204 2.74328C193.929 4.11943 193.202 5.91457 193.16 7.78999V39.1C192.045 39.0049 190.925 39.0049 189.81 39.1C184.979 39.5058 180.484 41.7364 177.238 45.3383C173.993 48.9401 172.242 53.6428 172.34 58.49L181.83 129.92L186.45 129.52V56.32C186.408 55.8425 186.462 55.3613 186.609 54.905C186.756 54.4488 186.993 54.0267 187.307 53.6639C187.62 53.3011 188.003 53.005 188.433 52.793C188.863 52.581 189.331 52.4576 189.81 52.43C191.81 52.25 193.17 53.43 193.17 55.74V55.9C193.17 56.16 193.17 56.41 193.17 56.67L197.93 136.36L202.52 135.96L207.28 55.44C207.28 55.19 207.28 54.93 207.28 54.68V54.51C207.238 54.0333 207.291 53.5529 207.438 53.0972C207.585 52.6416 207.821 52.22 208.133 51.8573C208.446 51.4947 208.827 51.1983 209.256 50.9858C209.685 50.7732 210.152 50.6489 210.63 50.62C212.63 50.44 213.99 51.62 213.99 53.93V127.12L218.62 126.72L228.1 53.64C228.1 43 220.31 36.45 210.63 37.29Z" fill="white"/>
<path d="M251.06 33.78C246.23 34.1834 241.735 36.4119 238.489 40.0121C235.244 43.6124 233.492 48.3139 233.59 53.16V108.89C233.59 119.55 241.39 126.08 251.06 125.24C255.889 124.834 260.381 122.605 263.625 119.005C266.868 115.405 268.618 110.705 268.52 105.86V50.13C268.52 39.46 260.73 32.94 251.06 33.78ZM254.42 108C254.462 108.478 254.408 108.959 254.261 109.415C254.114 109.871 253.877 110.293 253.563 110.656C253.25 111.019 252.867 111.315 252.437 111.527C252.007 111.739 251.539 111.862 251.06 111.89C249.06 112.07 247.7 110.89 247.7 108.59V51C247.658 50.5225 247.712 50.0413 247.859 49.5851C248.006 49.1288 248.243 48.7067 248.557 48.3439C248.87 47.9811 249.253 47.685 249.683 47.473C250.113 47.261 250.581 47.1376 251.06 47.11C253.06 46.93 254.42 48.11 254.42 50.42V108Z" fill="white"/>
<path d="M310.6 85.94C310.6 81.54 309.12 78.33 305.49 76.25C309.12 73.53 310.19 69.97 310.19 65.84V45.58C310.19 33.98 302.54 30.64 295.68 31.24L283.86 32.24C281.972 32.4209 280.216 33.2887 278.926 34.6786C277.636 36.0685 276.9 37.8838 276.86 39.78V121.64L290.86 120.43V83.39L294.08 83.11C296.5 82.9 297.17 84.3 297.17 86.84V106.17C297.17 112.83 297.84 116.38 299.05 119.74L312.35 118.58C311.223 113.781 310.639 108.87 310.61 103.94L310.6 85.94ZM296.76 67.27C296.76 70.07 296.09 71.2 294.21 71.36L290.85 71.65V44.19L294.07 43.91C295.95 43.75 296.76 44.91 296.76 47.54V67.27Z" fill="white"/>
<path d="M319.8 36.08V117.94L333.8 116.72V77.93L344.14 77.03V64.36L333.8 65.26V40.46L347.91 39.24V26.7L326.81 28.54C324.92 28.7186 323.162 29.5854 321.87 30.9755C320.577 32.3657 319.841 34.1823 319.8 36.08V36.08Z" fill="white"/>
<path d="M355.25 26.06V114.86L369.22 113.64V24.85L355.25 26.06Z" fill="white"/>
</svg>
