<?xml version="1.0" encoding="utf-8"?>
<!-- Generator: Adobe Illustrator 19.0.0, SVG Export Plug-In . SVG Version: 6.00 Build 0)  -->
<svg version="1.1" xmlns="http://www.w3.org/2000/svg" xmlns:xlink="http://www.w3.org/1999/xlink" x="0px" y="0px"
	 viewBox="0 0 1920 1080" style="enable-background:new 0 0 1920 1080;" xml:space="preserve">
<style type="text/css">
	.st0{fill:none;stroke:#AEEA00;stroke-width:30;stroke-linecap:round;stroke-miterlimit:10;}
	.st1{fill:#FFFFFF;}
</style>
<g id="Capa_1">
	<path id="XMLID_5_" class="st0" d="M1059.5,299c92,48,161.9,136,183.1,245.8c36.8,191.1-88.3,375.8-279.4,412.6
		C772.1,994.1,587.4,869.1,550.6,678c-24.7-128.4,23.7-253.9,116-333.6"/>
	<g id="XMLID_2_">
		<path id="XMLID_3_" class="st1" d="M887.2,261.7c-2.7-23.1-11.3-39.9-30-37.7c-17.6,2.1-21.3,18.1-18.7,40.1l11.7,100l-108.8,12.7
			l-12.2-104.4c-9.1-78,33.2-145.4,113.4-154.7c92.3-10.8,146.5,43.1,157.8,139.8c11.1,95.6-6.3,175.6-49.9,288.8
			c-37.6,98-48.4,158.3-49,210.7l155-18.1l12.3,105.5L788.4,877c-12.4-144.5,1.1-219.6,55.5-374.1
			C883.5,392.4,897.7,351.8,887.2,261.7z"/>
	</g>
</g>
<g id="Capa_2">
</g>
</svg>
