<?xml version="1.0" encoding="utf-8"?>
<!-- Generator: Adobe Illustrator 19.0.0, SVG Export Plug-In . SVG Version: 6.00 Build 0)  -->
<svg version="1.1" xmlns="http://www.w3.org/2000/svg" xmlns:xlink="http://www.w3.org/1999/xlink" x="0px" y="0px"
	 viewBox="0 0 1920 1080" style="enable-background:new 0 0 1920 1080;" xml:space="preserve">
<style type="text/css">
	.st0{fill:none;stroke:#AEEA00;stroke-width:30;stroke-linecap:round;stroke-miterlimit:10;}
	.st1{fill:#FFFFFF;}
</style>
<g id="Capa_1">
</g>
<g id="Capa_2">
	<path id="XMLID_47_" class="st0" d="M1071.2,304.4c92.7,51,162.1,142.2,181.2,254.6c33.3,195.6-98.2,381.1-293.8,414.5
		c-195.6,33.3-381.1-98.2-414.5-293.8c-22.4-131.4,29.7-258.3,125.6-337.6"/>
	<g id="XMLID_6_">
		<path id="XMLID_45_" class="st1" d="M891.7,273.6c-2.2-23.2-14.4-34.3-32.1-32.6c-22.1,2.1-26,19.2-24.2,39.1l7.7,80.6
			l-108.2,10.3l-7.5-79.5c-8.3-87.2,39-153,121.8-160.9c74-7,146.7,31.8,155.2,121.2l13.9,146.9c3.8,39.8-0.6,75.8-35.5,95.8
			c33.6,13.5,48.9,45.5,52.5,83l15.9,167.8c8.6,90.5-58.4,135.9-130.2,142.7c-83.9,8-142.6-46.6-151-135l-7.5-79.5l108.2-10.3
			l7.6,80.6c1.9,19.9,9,35.9,32.2,33.7c16.6-1.6,27.6-14.9,25.9-32.5l-16.2-171.2c-1.6-16.6-11.1-23.5-25.5-22.1l-59.6,5.7
			l-8.8-92.8l59.6-5.7c16.6-1.6,22-14.3,20.5-30.9L891.7,273.6z"/>
	</g>
</g>
</svg>
