<?xml version="1.0" encoding="UTF-8"?>
<svg width="50" height="50" viewBox="0 0 50 50" fill="none" xmlns="http://www.w3.org/2000/svg">
<path fill-rule="evenodd" clip-rule="evenodd" d="M30.4791 35.517L16 36V13H50V36L30.4791 35.517Z" fill="url(#paint0_linear)"/>
<path d="M48.0469 0H1.95312C0.874329 0 0 0.874329 0 1.95312V38.0859C0 39.1647 0.874329 40.0391 1.95312 40.0391H16.6035L11.8664 46.9418C10.9779 48.2361 11.9072 50 13.4766 50H36.5234C38.0932 50 39.0221 48.2357 38.1336 46.9418L33.3965 40.0391H48.0469C49.1257 40.0391 50 39.1647 50 38.0859V1.95312C50 0.874329 49.1257 0 48.0469 0ZM17.1856 46.0938L21.3409 40.0391H28.6591L32.8144 46.0938H17.1856ZM46.0938 36.1328C44.8689 36.1328 5.13 36.1328 3.90625 36.1328V3.90625H46.0938V36.1328ZM7.5058 14.2391C6.74286 13.4762 6.74286 12.2398 7.5058 11.4769C8.26836 10.7143 9.50508 10.7143 10.2676 11.4769L12.5977 13.8069L18.8339 7.57065C19.5965 6.80809 20.8332 6.80809 21.5958 7.57065C22.3587 8.33359 22.3587 9.56993 21.5958 10.3329L13.9786 17.9501C13.216 18.7126 11.9793 18.7126 11.2167 17.9501L7.5058 14.2391ZM7.5058 28.7575C6.74286 27.9945 6.74286 26.7582 7.5058 25.9953C8.26836 25.2327 9.50508 25.2327 10.2676 25.9953L12.5977 28.3253L18.8339 22.089C19.5965 21.3261 20.8332 21.3261 21.5958 22.089C22.3587 22.8519 22.3587 24.0883 21.5958 24.8512L13.9786 32.4684C13.216 33.231 11.9793 33.231 11.2167 32.4684L7.5058 28.7575ZM25.4883 12.7605C25.4883 11.6817 26.3626 10.8074 27.4414 10.8074H41.1133C42.1921 10.8074 43.0664 11.6817 43.0664 12.7605C43.0664 13.8393 42.1921 14.7137 41.1133 14.7137H27.4414C26.3626 14.7137 25.4883 13.839 25.4883 12.7605ZM25.4883 27.2785C25.4883 26.1997 26.3626 25.3254 27.4414 25.3254H41.1133C42.1921 25.3254 43.0664 26.1997 43.0664 27.2785C43.0664 28.3573 42.1921 29.2316 41.1133 29.2316H27.4414C26.3626 29.2316 25.4883 28.3573 25.4883 27.2785Z" fill="#14550F"/>
<defs>
<linearGradient id="paint0_linear" x1="16.17" y1="11.9343" x2="16.17" y2="36.345" gradientUnits="userSpaceOnUse">
<stop stop-color="#78E26F"/>
<stop offset="1" stop-color="#0BBC52"/>
</linearGradient>
</defs>
</svg>
